<svg width="76" height="34" viewBox="0 0 76 34" fill="none" xmlns="http://www.w3.org/2000/svg">
<path d="M5.516 14.168C4.12533 14.168 3.038 13.7807 2.254 13.006C1.47 12.2313 1.078 11.1253 1.078 9.688V4.2H3.346V9.604C3.346 10.5373 3.53733 11.2093 3.92 11.62C4.30267 12.0307 4.83933 12.236 5.53 12.236C6.22067 12.236 6.75733 12.0307 7.14 11.62C7.52267 11.2093 7.714 10.5373 7.714 9.604V4.2H9.954V9.688C9.954 11.1253 9.562 12.2313 8.778 13.006C7.994 13.7807 6.90667 14.168 5.516 14.168ZM16.6192 6.356C17.2165 6.356 17.7485 6.47733 18.2152 6.72C18.6912 6.95333 19.0645 7.31733 19.3352 7.812C19.6059 8.29733 19.7412 8.92267 19.7412 9.688V14H17.5572V10.024C17.5572 9.41733 17.4219 8.96933 17.1512 8.68C16.8899 8.39067 16.5165 8.246 16.0312 8.246C15.6859 8.246 15.3732 8.32067 15.0932 8.47C14.8225 8.61 14.6079 8.82933 14.4492 9.128C14.2999 9.42667 14.2252 9.80933 14.2252 10.276V14H12.0412V6.468H14.1272V8.554L13.7352 7.924C14.0059 7.42 14.3932 7.03267 14.8972 6.762C15.4012 6.49133 15.9752 6.356 16.6192 6.356ZM25.0096 14.112C24.3002 14.112 23.6609 13.9533 23.0916 13.636C22.5222 13.3093 22.0696 12.8567 21.7336 12.278C21.4069 11.6993 21.2436 11.018 21.2436 10.234C21.2436 9.44067 21.4069 8.75467 21.7336 8.176C22.0696 7.59733 22.5222 7.14933 23.0916 6.832C23.6609 6.51467 24.3002 6.356 25.0096 6.356C25.6442 6.356 26.1996 6.496 26.6756 6.776C27.1516 7.056 27.5202 7.48067 27.7816 8.05C28.0429 8.61933 28.1736 9.34733 28.1736 10.234C28.1736 11.1113 28.0476 11.8393 27.7956 12.418C27.5436 12.9873 27.1796 13.412 26.7036 13.692C26.2369 13.972 25.6722 14.112 25.0096 14.112ZM25.3876 12.32C25.7422 12.32 26.0642 12.236 26.3536 12.068C26.6429 11.9 26.8716 11.662 27.0396 11.354C27.2169 11.0367 27.3056 10.6633 27.3056 10.234C27.3056 9.79533 27.2169 9.422 27.0396 9.114C26.8716 8.806 26.6429 8.568 26.3536 8.4C26.0642 8.232 25.7422 8.148 25.3876 8.148C25.0236 8.148 24.6969 8.232 24.4076 8.4C24.1182 8.568 23.8849 8.806 23.7076 9.114C23.5396 9.422 23.4556 9.79533 23.4556 10.234C23.4556 10.6633 23.5396 11.0367 23.7076 11.354C23.8849 11.662 24.1182 11.9 24.4076 12.068C24.6969 12.236 25.0236 12.32 25.3876 12.32ZM27.3616 14V12.46L27.4036 10.22L27.2636 7.994V3.612H29.4476V14H27.3616ZM35.2069 14.112C34.3483 14.112 33.5923 13.944 32.9389 13.608C32.2949 13.272 31.7956 12.8147 31.4409 12.236C31.0863 11.648 30.9089 10.9807 30.9089 10.234C30.9089 9.478 31.0816 8.81067 31.4269 8.232C31.7816 7.644 32.2623 7.18667 32.8689 6.86C33.4756 6.524 34.1616 6.356 34.9269 6.356C35.6643 6.356 36.3269 6.51467 36.9149 6.832C37.5123 7.14 37.9836 7.588 38.3289 8.176C38.6743 8.75467 38.8469 9.45 38.8469 10.262C38.8469 10.346 38.8423 10.444 38.8329 10.556C38.8236 10.6587 38.8143 10.7567 38.8049 10.85H32.6869V9.576H37.6569L36.8169 9.954C36.8169 9.562 36.7376 9.22133 36.5789 8.932C36.4203 8.64267 36.2009 8.41867 35.9209 8.26C35.6409 8.092 35.3143 8.008 34.9409 8.008C34.5676 8.008 34.2363 8.092 33.9469 8.26C33.6669 8.41867 33.4476 8.64733 33.2889 8.946C33.1303 9.23533 33.0509 9.58067 33.0509 9.982V10.318C33.0509 10.7287 33.1396 11.0927 33.3169 11.41C33.5036 11.718 33.7603 11.956 34.0869 12.124C34.4229 12.2827 34.8149 12.362 35.2629 12.362C35.6643 12.362 36.0143 12.3013 36.3129 12.18C36.6209 12.0587 36.9009 11.8767 37.1529 11.634L38.3149 12.894C37.9696 13.286 37.5356 13.5893 37.0129 13.804C36.4903 14.0093 35.8883 14.112 35.2069 14.112ZM40.301 14V6.468H42.387V8.596L42.093 7.98C42.317 7.448 42.6763 7.04667 43.171 6.776C43.6656 6.496 44.2676 6.356 44.977 6.356V8.372C44.8836 8.36267 44.7996 8.358 44.725 8.358C44.6503 8.34867 44.571 8.344 44.487 8.344C43.8896 8.344 43.4043 8.51667 43.031 8.862C42.667 9.198 42.485 9.72533 42.485 10.444V14H40.301ZM48.2573 14L45.5413 6.468H47.5993L49.8533 12.95H48.8733L51.2253 6.468H53.0733L55.3553 12.95H54.3753L56.6993 6.468H58.6313L55.9013 14H53.7873L51.7853 8.442H52.4293L50.3573 14H48.2573ZM64.0206 14V12.53L63.8806 12.208V9.576C63.8806 9.10933 63.7359 8.74533 63.4466 8.484C63.1666 8.22267 62.7326 8.092 62.1446 8.092C61.7432 8.092 61.3466 8.15733 60.9546 8.288C60.5719 8.40933 60.2452 8.57733 59.9746 8.792L59.1906 7.266C59.6012 6.97667 60.0959 6.75267 60.6746 6.594C61.2532 6.43533 61.8412 6.356 62.4386 6.356C63.5866 6.356 64.4779 6.62667 65.1126 7.168C65.7472 7.70933 66.0646 8.554 66.0646 9.702V14H64.0206ZM61.7246 14.112C61.1366 14.112 60.6326 14.014 60.2126 13.818C59.7926 13.6127 59.4706 13.3373 59.2466 12.992C59.0226 12.6467 58.9106 12.2593 58.9106 11.83C58.9106 11.382 59.0179 10.99 59.2326 10.654C59.4566 10.318 59.8066 10.0567 60.2826 9.87C60.7586 9.674 61.3792 9.576 62.1446 9.576H64.1466V10.85H62.3826C61.8692 10.85 61.5146 10.934 61.3186 11.102C61.1319 11.27 61.0386 11.48 61.0386 11.732C61.0386 12.012 61.1459 12.236 61.3606 12.404C61.5846 12.5627 61.8879 12.642 62.2706 12.642C62.6346 12.642 62.9612 12.558 63.2506 12.39C63.5399 12.2127 63.7499 11.956 63.8806 11.62L64.2166 12.628C64.0579 13.1133 63.7686 13.482 63.3486 13.734C62.9286 13.986 62.3872 14.112 61.7246 14.112ZM68.8565 16.828C68.4645 16.828 68.0772 16.7673 67.6945 16.646C67.3118 16.5247 66.9992 16.3567 66.7565 16.142L67.5545 14.588C67.7225 14.7373 67.9138 14.854 68.1285 14.938C68.3525 15.022 68.5718 15.064 68.7865 15.064C69.0945 15.064 69.3372 14.9893 69.5145 14.84C69.7012 14.7 69.8692 14.462 70.0185 14.126L70.4105 13.202L70.5785 12.964L73.2805 6.468H75.3805L71.9785 14.462C71.7358 15.0687 71.4558 15.5447 71.1385 15.89C70.8305 16.2353 70.4852 16.478 70.1025 16.618C69.7292 16.758 69.3138 16.828 68.8565 16.828ZM70.1445 14.294L66.7845 6.468H69.0385L71.6425 12.768L70.1445 14.294ZM3.262 25.61H7.966V27.43H3.262V25.61ZM3.43 31H1.162V21.2H8.568V23.02H3.43V31ZM13.342 31.112C12.5393 31.112 11.8253 30.944 11.2 30.608C10.584 30.272 10.094 29.8147 9.73 29.236C9.37533 28.648 9.198 27.9807 9.198 27.234C9.198 26.478 9.37533 25.8107 9.73 25.232C10.094 24.644 10.584 24.1867 11.2 23.86C11.8253 23.524 12.5393 23.356 13.342 23.356C14.1353 23.356 14.8447 23.524 15.47 23.86C16.0953 24.1867 16.5853 24.6393 16.94 25.218C17.2947 25.7967 17.472 26.4687 17.472 27.234C17.472 27.9807 17.2947 28.648 16.94 29.236C16.5853 29.8147 16.0953 30.272 15.47 30.608C14.8447 30.944 14.1353 31.112 13.342 31.112ZM13.342 29.32C13.706 29.32 14.0327 29.236 14.322 29.068C14.6113 28.9 14.84 28.662 15.008 28.354C15.176 28.0367 15.26 27.6633 15.26 27.234C15.26 26.7953 15.176 26.422 15.008 26.114C14.84 25.806 14.6113 25.568 14.322 25.4C14.0327 25.232 13.706 25.148 13.342 25.148C12.978 25.148 12.6513 25.232 12.362 25.4C12.0727 25.568 11.8393 25.806 11.662 26.114C11.494 26.422 11.41 26.7953 11.41 27.234C11.41 27.6633 11.494 28.0367 11.662 28.354C11.8393 28.662 12.0727 28.9 12.362 29.068C12.6513 29.236 12.978 29.32 13.342 29.32ZM17.7474 31L21.1214 26.576L21.0794 27.78L17.8454 23.468H20.2954L22.3394 26.282L21.4154 26.31L23.5294 23.468H25.8534L22.6054 27.738V26.562L25.9654 31H23.4874L21.3454 28.004L22.2554 28.13L20.1274 31H17.7474Z" fill="#040404"/>
<g clip-path="url(#clip0_17_324)">
<path d="M32.9286 19.0284C32.9253 19.0451 32.9089 19.1186 32.8941 19.1921C32.8728 19.2906 32.8482 19.3541 32.7973 19.4343C32.758 19.4944 32.6923 19.6297 32.6513 19.735L32.5742 19.927L32.5595 20.3112C32.5463 20.6954 32.5463 20.6954 32.5857 20.7756C32.6218 20.8491 32.6251 20.8825 32.6366 21.2166C32.648 21.564 32.6464 21.5807 32.612 21.6793C32.5135 21.9532 32.3265 22.6681 32.2707 22.9838C32.2346 23.196 32.192 23.3747 32.1559 23.4766C32.1017 23.6303 32.0984 23.6503 32.0738 24.0529C32.0607 24.2817 32.0492 24.6409 32.0492 24.8513C32.0492 25.1086 32.041 25.2856 32.0246 25.4025C32.0016 25.5562 32.0016 25.6047 32.0246 25.8986C32.0459 26.1676 32.0656 26.2995 32.1411 26.657L32.233 27.0896L32.4298 27.4254L32.6251 27.7611L32.7432 27.8263C32.8498 27.8831 32.8827 27.9165 33.0828 28.157C33.3338 28.4593 33.3683 28.4844 33.6702 28.5779C33.7965 28.618 33.8523 28.6431 33.8736 28.6731C33.8966 28.7049 33.9097 28.7968 33.9409 29.1392L33.9786 29.5651L33.9327 29.7572C33.9064 29.8625 33.8523 30.1414 33.8129 30.3753C33.7407 30.8029 33.7325 30.8396 33.4897 31.6448C33.3453 32.1275 33.1616 32.4298 33.0155 32.4298C32.9827 32.4298 32.9466 32.4415 32.9352 32.4549C32.9237 32.4682 32.84 32.5033 32.7481 32.5317C32.589 32.5802 32.5775 32.5868 32.4856 32.6854C32.3347 32.8491 32.315 32.8808 32.2871 33.0178L32.2609 33.1448L32.338 33.2533L32.4151 33.3619L32.5398 33.3719C32.6087 33.3786 32.7842 33.402 32.9319 33.4254L33.1993 33.4671L33.4749 33.3736C33.7325 33.2867 33.7538 33.2767 33.8244 33.2015C33.9622 33.0546 33.9852 33.0128 33.9852 32.9042C33.9852 32.8341 34.0114 32.7205 34.077 32.4966C34.1788 32.1509 34.1607 32.2027 34.4938 31.2856C34.8202 30.3853 34.917 30.1531 35.1155 29.7923C35.2698 29.51 35.2845 29.4749 35.296 29.3664C35.3091 29.2511 35.2862 29.1275 35.2468 29.0807C35.2271 29.0607 35.2288 28.9387 35.2468 28.9387C35.3026 28.9387 35.5749 29.0841 35.7045 29.1826C35.8538 29.2962 35.8571 29.3012 36.0425 29.5985C36.2131 29.8741 36.2345 29.9192 36.3034 30.1331C36.369 30.3352 36.3854 30.4204 36.4297 30.7595C36.5166 31.4293 36.5166 31.4927 36.4412 32.1793L36.3772 32.7723L36.3263 32.8307C36.159 33.0278 36.1885 33.0095 35.967 33.0479C35.8555 33.0662 35.7488 33.0846 35.7291 33.0896C35.675 33.103 35.5831 33.1915 35.5077 33.3034C35.4453 33.397 35.442 33.407 35.442 33.5356C35.442 33.7077 35.4502 33.716 35.7406 33.8463C36.0983 34.0067 36.0999 34.0067 36.2837 33.9682C36.369 33.9499 36.4559 33.9282 36.4789 33.9198C36.5019 33.9098 36.5773 33.8396 36.6463 33.7611C36.7152 33.6843 36.8087 33.5991 36.8513 33.5724C37.017 33.4738 37.1729 33.3485 37.2582 33.2483L37.3452 33.1431L37.3566 32.6821C37.3681 32.3012 37.3648 32.1793 37.3419 31.9822L37.3156 31.7416L37.4305 30.9799C37.4945 30.559 37.5568 30.1782 37.5699 30.1297C37.583 30.0829 37.5945 30.0111 37.5945 29.9694C37.5945 29.9209 37.606 29.8808 37.6273 29.8524C37.6454 29.829 37.6602 29.8023 37.6602 29.794C37.6602 29.7856 37.7061 29.6804 37.7602 29.5635C37.816 29.4449 37.8898 29.2795 37.9243 29.1976C37.9981 29.0206 37.9604 29.0289 38.3427 29.0958L38.6068 29.1425L38.8972 29.0907C39.0563 29.0623 39.2401 29.039 39.3073 29.039C39.4173 29.039 39.4304 29.0423 39.4353 29.0724C39.4386 29.0907 39.5321 29.2394 39.642 29.4031L39.8455 29.6988L40.1178 29.8842C40.4246 30.0913 40.5575 30.1481 40.7855 30.1665C40.8905 30.1748 40.9234 30.1832 40.9545 30.2149L40.9923 30.2517L40.9513 30.5106C40.9201 30.6993 40.8922 30.8129 40.8463 30.9348C40.7954 31.0668 40.779 31.1353 40.7691 31.2606C40.7511 31.4894 40.6609 31.7433 40.5099 31.9855C40.4476 32.0874 40.3852 32.1826 40.3721 32.1976C40.359 32.2144 40.3114 32.2277 40.2474 32.2344C39.939 32.2645 39.6437 32.3864 39.4829 32.5534C39.4091 32.6303 39.3992 32.6486 39.3894 32.7355C39.3763 32.8541 39.3861 32.8675 39.5616 32.9543C39.6519 33.0011 39.6945 33.0312 39.7011 33.0562C39.7093 33.0896 39.7241 33.0946 39.8701 33.103C40.1227 33.1214 40.4213 33.1164 40.6641 33.0896L40.8889 33.0679L41.0038 32.9894L41.1202 32.9109L41.1842 32.7405C41.2695 32.5167 41.4336 32.059 41.5977 31.588C41.6863 31.3324 41.7765 31.1136 41.87 30.9231C41.9652 30.7294 42.0324 30.564 42.0833 30.402C42.1227 30.2734 42.1555 30.1581 42.1555 30.1498C42.1555 30.0997 42.057 30.0278 41.9307 29.9844L41.7995 29.9393L41.6551 29.7238L41.5107 29.51L41.4992 29.2361C41.491 29.0857 41.4894 28.9605 41.4943 28.9554C41.4976 28.9521 41.5353 28.9872 41.578 29.0356C41.6206 29.0824 41.8766 29.3263 42.1473 29.5752C42.5131 29.9126 42.692 30.0629 42.8445 30.1681L43.0496 30.3068L43.4762 30.4154C43.7108 30.4755 43.9684 30.5473 44.0488 30.574C44.1423 30.6074 44.2292 30.6258 44.285 30.6258C44.3654 30.6258 44.3884 30.6358 44.518 30.7177C44.6541 30.8062 44.6673 30.8213 44.833 31.0568L45.0052 31.3023L45.1972 31.7951L45.3891 32.2878L45.4039 32.4799C45.417 32.6654 45.417 32.6737 45.3826 32.7088C45.3613 32.7305 45.3005 32.7572 45.2382 32.7739C45.1529 32.7956 45.1053 32.8207 45.0085 32.8992C44.8871 32.9961 44.8855 32.9994 44.8395 33.1397L44.7936 33.2834L44.8723 33.3769L44.9495 33.4688L45.3777 33.4571C45.7484 33.4471 45.8108 33.4404 45.8469 33.4154C45.8698 33.3986 45.9322 33.3769 45.9863 33.3652C46.0405 33.3552 46.0979 33.3419 46.1143 33.3385C46.1323 33.3318 46.198 33.2182 46.2866 33.0362L46.4309 32.7439L46.321 32.358C46.2603 32.1442 46.1602 31.8051 46.0963 31.603C45.9847 31.2439 45.9814 31.2238 45.9207 30.7695C45.8633 30.3252 45.8567 30.2984 45.8091 30.2249C45.7452 30.128 45.627 30.0362 45.5155 29.9978C45.4679 29.9827 45.3957 29.9493 45.3547 29.9243C45.3137 29.8992 45.253 29.8758 45.2185 29.8691C45.166 29.8608 45.1053 29.809 44.7969 29.505C44.4884 29.201 44.4212 29.1241 44.3227 28.9738C44.2128 28.8034 44.2046 28.7817 44.0848 28.3875L43.9602 27.9783L43.9438 27.402C43.9241 26.6887 43.9241 26.6002 43.9405 26.6002C43.9487 26.6002 43.9634 26.6169 43.9749 26.6386C43.9864 26.6603 44.0438 26.7021 44.1029 26.7322C44.1603 26.7606 44.2948 26.8508 44.3998 26.9309C44.5048 27.0111 44.6952 27.1414 44.8215 27.2199C45.0495 27.3619 45.0528 27.3619 45.4121 27.4655C45.609 27.5239 45.901 27.5941 46.0602 27.6225C46.2833 27.6626 46.3588 27.6843 46.4014 27.7143C46.4293 27.7361 46.4621 27.7494 46.4703 27.7444C46.49 27.7327 46.636 27.7862 46.9461 27.9198C47.0773 27.9766 47.3005 28.0668 47.4448 28.1203L47.7041 28.2188L48.1011 28.2372C48.3177 28.2455 48.5785 28.2572 48.6802 28.2606C48.7902 28.2656 48.9805 28.2556 49.156 28.2372C49.4005 28.2121 49.4694 28.1988 49.5793 28.1553C49.681 28.1152 49.7614 28.0985 49.955 28.0768C50.3225 28.0367 50.5473 27.9515 51.0231 27.6759C51.3627 27.4788 51.4086 27.4454 51.8007 27.1214L52.2191 26.7756L52.5357 26.3079C52.7096 26.0523 52.8523 25.8302 52.8523 25.8135C52.8523 25.7867 52.977 25.0534 52.9951 24.985C53.0016 24.9549 52.9951 24.9465 52.9606 24.9365C52.9245 24.9282 52.8983 24.9449 52.7752 25.0601C52.6489 25.1754 52.5915 25.2138 52.3273 25.3524L52.0238 25.5111L51.6711 25.5479L51.3184 25.5846L50.8672 25.5245C50.6195 25.4911 50.3537 25.456 50.2766 25.446C50.1995 25.436 50.06 25.4025 49.9648 25.3725C49.8681 25.3424 49.6351 25.2906 49.4316 25.2572C49.0707 25.1954 47.8796 24.9181 47.768 24.868C47.7352 24.8547 47.6466 24.8363 47.5695 24.8279C47.4695 24.8162 47.4153 24.8012 47.3727 24.7728C47.3284 24.7427 47.2808 24.7311 47.1692 24.721C47.0806 24.7143 46.9707 24.691 46.8821 24.6592C46.6803 24.5891 46.093 24.4454 46.0077 24.4454C45.9666 24.4454 45.8698 24.422 45.7878 24.3953C45.5745 24.3201 45.1266 24.265 44.5754 24.2433C44.1931 24.2299 44.1045 24.2316 43.9273 24.255C43.7354 24.2801 43.7091 24.2901 43.5172 24.3836C43.404 24.4387 43.2842 24.4939 43.2498 24.5056C43.2153 24.5172 43.1448 24.5623 43.0906 24.6041C42.9413 24.721 42.9118 24.716 42.6378 24.5206C42.3622 24.3235 42.098 24.1848 41.9553 24.1631C41.8979 24.1548 41.8159 24.1347 41.7699 24.1214C41.6994 24.0997 41.6354 24.098 41.2974 24.113L40.9037 24.1297L40.5444 24.2199L40.1834 24.3118L39.9209 24.245C39.7487 24.1999 39.6158 24.1548 39.5321 24.1113L39.4041 24.0462L39.1105 24.0596C38.8447 24.0729 38.7758 24.0696 38.382 24.0262C37.6651 23.946 37.775 23.9426 37.1713 24.0679L36.6397 24.1782L36.4034 24.0312C36.2607 23.9443 36.1672 23.8758 36.1672 23.8591C36.1672 23.8458 36.1852 23.8157 36.2066 23.7956C36.2345 23.7689 36.2509 23.7305 36.2574 23.672C36.2705 23.5752 36.2968 23.515 36.4215 23.3079L36.5068 23.1659L36.5347 22.7817C36.5724 22.2388 36.5741 22.2606 36.4855 22.0701C36.4166 21.9231 36.41 21.9031 36.428 21.8597C36.4395 21.8313 36.4805 21.7929 36.5281 21.7645C36.6774 21.6759 36.7873 21.4638 37.0663 20.7155C37.2369 20.2628 37.2615 20.1425 37.1991 20.0757C37.1647 20.039 37.1598 20.0373 37.1253 20.0607C37.1007 20.0774 37.0039 20.0891 36.8202 20.1024L36.5527 20.1191L36.3116 20.2227C36.1098 20.3112 36.0294 20.3563 35.8292 20.5017L35.5897 20.6754L35.447 20.6637C35.3698 20.657 35.2353 20.6336 35.1484 20.6119C35.0614 20.5885 34.8366 20.5468 34.648 20.5184C34.3248 20.4682 34.3002 20.4666 34.205 20.49C34.077 20.5217 34.013 20.4966 33.9835 20.4048C33.954 20.3146 33.598 19.7867 33.3059 19.4009C33.0106 19.0117 33.0205 19.0234 32.9729 19.01C32.9466 19.0017 32.9352 19.0067 32.9286 19.0284Z" fill="#5162FF"/>
</g>
<defs>
<clipPath id="clip0_17_324">
<rect width="21" height="15" fill="white" transform="translate(32 19)"/>
</clipPath>
</defs>
</svg>
