<svg width="100" height="100" viewBox="0 0 100 100" fill="none" xmlns="http://www.w3.org/2000/svg">
<rect width="100" height="100" rx="50" fill="white"/>
<g clip-path="url(#clip0_117_56)">
<path d="M19.5375 22.1079C19.525 22.1714 19.4625 22.4507 19.4063 22.73C19.325 23.1045 19.2313 23.3457 19.0375 23.6503C18.8875 23.8788 18.6375 24.393 18.4813 24.7929L18.1875 25.5228L18.1313 26.9827C18.0813 28.4427 18.0813 28.4427 18.2313 28.7473C18.3688 29.0266 18.3813 29.1536 18.425 30.4231C18.4688 31.7433 18.4625 31.8068 18.3313 32.1813C17.9563 33.2223 17.2438 35.939 17.0313 37.1386C16.8938 37.9448 16.7313 38.6239 16.5938 39.0111C16.3875 39.5951 16.375 39.6713 16.2813 41.201C16.2313 42.0706 16.1875 43.4353 16.1875 44.2351C16.1875 45.2126 16.1563 45.8854 16.0938 46.3297C16.0063 46.9137 16.0063 47.0978 16.0938 48.2149C16.175 49.2369 16.25 49.7383 16.5375 51.0967L16.8875 52.7407L17.6375 54.0165L18.3813 55.2923L18.8313 55.5399C19.2375 55.7557 19.3625 55.8826 20.125 56.7967C21.0813 57.9456 21.2125 58.0408 22.3625 58.3962C22.8438 58.5486 23.0563 58.6438 23.1375 58.758C23.225 58.8786 23.275 59.2277 23.3938 60.529L23.5375 62.1476L23.3625 62.8775C23.2625 63.2774 23.0563 64.3374 22.9063 65.2261C22.6313 66.851 22.6 66.9907 21.675 70.0501C21.125 71.8845 20.425 73.0334 19.8688 73.0334C19.7438 73.0334 19.6063 73.0778 19.5625 73.1286C19.5188 73.1794 19.2 73.3127 18.85 73.4206C18.2438 73.6047 18.2 73.6301 17.85 74.0046C17.275 74.6266 17.2 74.7472 17.0938 75.2677L16.9938 75.7501L17.2875 76.1627L17.5813 76.5753L18.0563 76.6134C18.3188 76.6388 18.9875 76.7276 19.55 76.8165L20.5688 76.9752L21.6188 76.6197C22.6 76.2897 22.6813 76.2516 22.95 75.9659C23.475 75.4074 23.5625 75.2487 23.5625 74.8361C23.5625 74.5695 23.6625 74.1379 23.9125 73.2873C24.3 71.9734 24.2313 72.1702 25.5 68.6854C26.7438 65.2642 27.1125 64.3819 27.8688 63.0108C28.4563 61.9381 28.5125 61.8048 28.5563 61.3922C28.6063 60.9542 28.5188 60.4845 28.3688 60.3068C28.2938 60.2306 28.3 59.7673 28.3688 59.7673C28.5813 59.7673 29.6188 60.3195 30.1125 60.694C30.6813 61.1256 30.6938 61.1447 31.4 62.2745C32.05 63.3218 32.1313 63.4932 32.3938 64.3057C32.6438 65.0737 32.7063 65.3974 32.875 66.686C33.2063 69.2313 33.2063 69.4725 32.9188 72.0813L32.675 74.3346L32.4813 74.5568C31.8438 75.3058 31.9563 75.236 31.1125 75.382C30.6875 75.4518 30.2813 75.5216 30.2063 75.5407C30 75.5914 29.65 75.9278 29.3625 76.3531C29.125 76.7086 29.1125 76.7467 29.1125 77.2354C29.1125 77.8892 29.1438 77.9209 30.25 78.416C31.6125 79.0254 31.6188 79.0254 32.3188 78.8794C32.6438 78.8096 32.975 78.7271 33.0625 78.6953C33.15 78.6572 33.4375 78.3907 33.7 78.0923C33.9625 77.8003 34.3188 77.4766 34.4813 77.3751C35.1125 77.0006 35.7063 76.5245 36.0313 76.1437L36.3625 75.7438L36.4063 73.9919C36.45 72.5447 36.4375 72.0813 36.35 71.3323L36.25 70.4183L36.6875 67.5238C36.9313 65.9243 37.1688 64.4771 37.2188 64.293C37.2688 64.1153 37.3125 63.8423 37.3125 63.6836C37.3125 63.4996 37.3563 63.3472 37.4375 63.2393C37.5063 63.1505 37.5625 63.0489 37.5625 63.0172C37.5625 62.9854 37.7375 62.5855 37.9438 62.1412C38.1563 61.6905 38.4375 61.0621 38.5688 60.7511C38.85 60.0783 38.7063 60.11 40.1625 60.3639L41.1688 60.5417L42.275 60.3449C42.8813 60.237 43.5813 60.1481 43.8375 60.1481C44.2563 60.1481 44.3063 60.1608 44.325 60.2751C44.3375 60.3449 44.6938 60.9098 45.1125 61.5319L45.8875 62.6554L46.925 63.3599C48.0938 64.147 48.6 64.3628 49.4688 64.4326C49.8688 64.4644 49.9938 64.4961 50.1125 64.6167L50.2563 64.7564L50.1 65.7402C49.9813 66.4575 49.875 66.8891 49.7 67.3525C49.5063 67.8539 49.4438 68.1142 49.4063 68.5902C49.3375 69.4598 48.9938 70.4246 48.4188 71.345C48.1813 71.7322 47.9438 72.094 47.8938 72.1511C47.8438 72.2146 47.6625 72.2654 47.4188 72.2908C46.2438 72.405 45.1188 72.8684 44.5063 73.5031C44.225 73.7951 44.1875 73.8649 44.15 74.195C44.1 74.6457 44.1375 74.6964 44.8063 75.0265C45.15 75.2042 45.3125 75.3185 45.3375 75.4137C45.3688 75.5407 45.425 75.5597 45.9813 75.5914C46.9438 75.6613 48.0813 75.6422 49.0063 75.5407L49.8625 75.4581L50.3 75.1598L50.7438 74.8615L50.9875 74.214C51.3125 73.3635 51.9375 71.6243 52.5625 69.8343C52.9 68.8631 53.2438 68.0316 53.6 67.308C53.9625 66.5717 54.2188 65.9433 54.4125 65.3276C54.5625 64.8389 54.6875 64.4009 54.6875 64.3692C54.6875 64.1787 54.3125 63.9058 53.8313 63.7408L53.3313 63.5694L52.7813 62.7506L52.2313 61.9381L52.1875 60.8971C52.1563 60.3258 52.15 59.8498 52.1688 59.8307C52.1813 59.818 52.325 59.9513 52.4875 60.1354C52.65 60.3131 53.625 61.2399 54.6563 62.1856C56.05 63.4678 56.7313 64.0391 57.3125 64.439L58.0938 64.9658L59.7188 65.3784C60.6125 65.6069 61.5938 65.8799 61.9 65.9814C62.2563 66.1084 62.5875 66.1782 62.8 66.1782C63.1063 66.1782 63.1938 66.2163 63.6875 66.5273C64.2063 66.8637 64.2563 66.9208 64.8875 67.8158L65.5438 68.7489L66.275 70.6214L67.0063 72.4939L67.0625 73.2238C67.1125 73.9284 67.1125 73.9601 66.9813 74.0934C66.9 74.176 66.6688 74.2775 66.4313 74.341C66.1063 74.4235 65.925 74.5187 65.5563 74.817C65.0938 75.1852 65.0875 75.1979 64.9125 75.7311L64.7375 76.277L65.0375 76.6324L65.3313 76.9815L66.9625 76.9371C68.375 76.899 68.6125 76.8736 68.75 76.7784C68.8375 76.7149 69.075 76.6324 69.2813 76.588C69.4875 76.5499 69.7063 76.4991 69.7688 76.4864C69.8375 76.461 70.0875 76.0294 70.425 75.3375L70.975 74.2267L70.5563 72.7605C70.325 71.948 69.9438 70.6595 69.7 69.8914C69.275 68.5267 69.2625 68.4506 69.0313 66.7241C68.8125 65.0356 68.7875 64.9341 68.6063 64.6548C68.3625 64.2866 67.9125 63.9375 67.4875 63.7915C67.3063 63.7344 67.0313 63.6075 66.875 63.5123C66.7188 63.417 66.4875 63.3282 66.3563 63.3028C66.1563 63.2711 65.925 63.0743 64.75 61.9191C63.575 60.7638 63.3188 60.4718 62.9438 59.9006C62.525 59.2531 62.4938 59.1706 62.0375 57.6726L61.5625 56.1175L61.5 53.9276C61.425 51.2173 61.425 50.8809 61.4875 50.8809C61.5188 50.8809 61.575 50.9443 61.6188 51.0268C61.6625 51.1094 61.8813 51.268 62.1063 51.3823C62.325 51.4902 62.8375 51.833 63.2375 52.1376C63.6375 52.4423 64.3625 52.9374 64.8438 53.2358C65.7125 53.7753 65.725 53.7753 67.0938 54.1688C67.8438 54.391 68.9563 54.6576 69.5625 54.7655C70.4125 54.9178 70.7 55.0003 70.8625 55.1146C70.9688 55.1971 71.0938 55.2479 71.125 55.2289C71.2 55.1844 71.7563 55.3875 72.9375 55.8953C73.4375 56.1111 74.2875 56.4539 74.8375 56.657L75.825 57.0315L77.3375 57.1013C78.1625 57.1331 79.1563 57.1775 79.5438 57.1902C79.9625 57.2093 80.6875 57.1712 81.3563 57.1013C82.2875 57.0061 82.55 56.9554 82.9688 56.7903C83.3563 56.638 83.6625 56.5745 84.4 56.492C85.8 56.3397 86.6563 56.0159 88.4688 54.9686C89.7625 54.2196 89.9375 54.0927 91.4313 52.8613L93.025 51.5473L94.2313 49.7701C94.8938 48.7989 95.4375 47.9547 95.4375 47.8912C95.4375 47.7897 95.9125 45.0031 95.9813 44.7429C96.0063 44.6286 95.9813 44.5969 95.85 44.5588C95.7125 44.5271 95.6125 44.5905 95.1438 45.0285C94.6625 45.4665 94.4438 45.6125 93.4375 46.1393L92.2813 46.7423L90.9375 46.882L89.5938 47.0216L87.875 46.7931C86.9313 46.6662 85.9188 46.5329 85.625 46.4948C85.3313 46.4567 84.8 46.3297 84.4375 46.2155C84.0688 46.1012 83.1813 45.9045 82.4063 45.7775C81.0313 45.5427 76.4938 44.489 76.0688 44.2986C75.9438 44.2478 75.6063 44.178 75.3125 44.1462C74.9313 44.1018 74.725 44.0447 74.5625 43.9368C74.3938 43.8225 74.2125 43.7781 73.7875 43.74C73.45 43.7146 73.0313 43.6257 72.6938 43.5051C71.925 43.2385 69.6875 42.6927 69.3625 42.6927C69.2063 42.6927 68.8375 42.6038 68.525 42.5022C67.7125 42.2166 66.0063 42.0071 63.9063 41.9246C62.45 41.8738 62.1125 41.8802 61.4375 41.969C60.7063 42.0643 60.6063 42.1023 59.875 42.4578C59.4438 42.6673 58.9875 42.8767 58.8563 42.9212C58.725 42.9656 58.4563 43.137 58.25 43.2957C57.6813 43.74 57.5688 43.7209 56.525 42.9783C55.475 42.2293 54.4688 41.7025 53.925 41.6199C53.7063 41.5882 53.3938 41.512 53.2188 41.4613C52.95 41.3787 52.7063 41.3724 51.4188 41.4295L49.9188 41.493L48.55 41.8358L47.175 42.1849L46.175 41.931C45.5188 41.7596 45.0125 41.5882 44.6938 41.4232L44.2063 41.1756L43.0875 41.2264C42.075 41.2772 41.8125 41.2645 40.3125 41.0995C37.5813 40.7948 38 40.7821 35.7 41.2581L33.675 41.6771L32.775 41.1185C32.2313 40.7884 31.875 40.5282 31.875 40.4647C31.875 40.4139 31.9438 40.2997 32.025 40.2235C32.1313 40.1219 32.1938 39.976 32.2188 39.7538C32.2688 39.3856 32.3688 39.1571 32.8438 38.3701L33.1688 37.8305L33.275 36.3706C33.4188 34.3077 33.425 34.3902 33.0875 33.6666C32.825 33.108 32.8 33.0319 32.8688 32.8668C32.9125 32.7589 33.0688 32.6129 33.25 32.505C33.8188 32.1686 34.2375 31.3625 35.3 28.5188C35.95 26.7987 36.0438 26.3417 35.8063 26.0878C35.675 25.9481 35.6563 25.9418 35.525 26.0306C35.4313 26.0941 35.0625 26.1385 34.3625 26.1893L33.3438 26.2528L32.425 26.6463C31.6563 26.9827 31.35 27.1541 30.5875 27.7064L29.675 28.3665L29.1313 28.3221C28.8375 28.2967 28.325 28.2078 27.9938 28.1253C27.6625 28.0364 26.8063 27.8777 26.0875 27.7698C24.8563 27.5794 24.7625 27.5731 24.4 27.6619C23.9125 27.7825 23.6688 27.6873 23.5563 27.3382C23.4438 26.9954 22.0875 24.9896 20.975 23.5234C19.85 22.0444 19.8875 22.0889 19.7063 22.0381C19.6063 22.0064 19.5625 22.0254 19.5375 22.1079Z" fill="#5162FF"/>
</g>
<defs>
<clipPath id="clip0_117_56">
<rect width="80" height="57" fill="white" transform="translate(16 22)"/>
</clipPath>
</defs>
</svg>
